<mxfile host="Electron" modified="2023-12-05T16:04:32.048Z" agent="Mozilla/5.0 (Windows NT 10.0; Win64; x64) AppleWebKit/537.36 (KHTML, like Gecko) draw.io/22.0.3 Chrome/114.0.5735.289 Electron/25.8.4 Safari/537.36" etag="tDssTRCp7Ye8N0ye7hZO" version="22.0.3" type="device">
  <diagram name="Page-1" id="dQq_sxYRf2Paqsmh5ATd">
    <mxGraphModel dx="1328" dy="1955" grid="1" gridSize="10" guides="1" tooltips="1" connect="1" arrows="1" fold="1" page="1" pageScale="1" pageWidth="850" pageHeight="1100" math="0" shadow="0">
      <root>
        <mxCell id="0" />
        <mxCell id="1" parent="0" />
        <mxCell id="t8uLsHS5nV-Fre8a65G6-3" value="" style="edgeStyle=orthogonalEdgeStyle;rounded=0;orthogonalLoop=1;jettySize=auto;html=1;" parent="1" source="t8uLsHS5nV-Fre8a65G6-1" target="t8uLsHS5nV-Fre8a65G6-2" edge="1">
          <mxGeometry relative="1" as="geometry" />
        </mxCell>
        <mxCell id="t8uLsHS5nV-Fre8a65G6-1" value="start" style="ellipse;whiteSpace=wrap;html=1;" parent="1" vertex="1">
          <mxGeometry x="370" y="-130" width="120" height="80" as="geometry" />
        </mxCell>
        <mxCell id="t8uLsHS5nV-Fre8a65G6-5" value="" style="edgeStyle=orthogonalEdgeStyle;rounded=0;orthogonalLoop=1;jettySize=auto;html=1;" parent="1" source="t8uLsHS5nV-Fre8a65G6-2" target="t8uLsHS5nV-Fre8a65G6-4" edge="1">
          <mxGeometry relative="1" as="geometry" />
        </mxCell>
        <mxCell id="t8uLsHS5nV-Fre8a65G6-2" value="input n" style="rhombus;whiteSpace=wrap;html=1;" parent="1" vertex="1">
          <mxGeometry x="385" y="180" width="80" height="80" as="geometry" />
        </mxCell>
        <mxCell id="t8uLsHS5nV-Fre8a65G6-7" value="" style="edgeStyle=orthogonalEdgeStyle;rounded=0;orthogonalLoop=1;jettySize=auto;html=1;" parent="1" source="t8uLsHS5nV-Fre8a65G6-4" target="t8uLsHS5nV-Fre8a65G6-6" edge="1">
          <mxGeometry relative="1" as="geometry" />
        </mxCell>
        <mxCell id="t8uLsHS5nV-Fre8a65G6-4" value="&lt;div style=&quot;color: rgb(204, 204, 204); background-color: rgb(31, 31, 31); font-family: Consolas, &amp;quot;Courier New&amp;quot;, monospace; font-size: 14px; line-height: 19px;&quot;&gt;&amp;nbsp;f &lt;span style=&quot;color: #d4d4d4;&quot;&gt;=&lt;/span&gt; &lt;span style=&quot;color: #dcdcaa;&quot;&gt;fopen&lt;/span&gt;(&lt;span style=&quot;color: #ce9178;&quot;&gt;&quot;bt03.txt&quot;&lt;/span&gt;,&lt;span style=&quot;color: #ce9178;&quot;&gt;&quot;w&quot;&lt;/span&gt;);&lt;/div&gt;" style="rounded=0;whiteSpace=wrap;html=1;" parent="1" vertex="1">
          <mxGeometry x="295" y="320" width="245" height="60" as="geometry" />
        </mxCell>
        <mxCell id="t8uLsHS5nV-Fre8a65G6-10" value="" style="edgeStyle=orthogonalEdgeStyle;rounded=0;orthogonalLoop=1;jettySize=auto;html=1;" parent="1" source="t8uLsHS5nV-Fre8a65G6-6" target="t8uLsHS5nV-Fre8a65G6-8" edge="1">
          <mxGeometry relative="1" as="geometry" />
        </mxCell>
        <mxCell id="t8uLsHS5nV-Fre8a65G6-13" value="" style="edgeStyle=orthogonalEdgeStyle;rounded=0;orthogonalLoop=1;jettySize=auto;html=1;" parent="1" source="t8uLsHS5nV-Fre8a65G6-6" target="t8uLsHS5nV-Fre8a65G6-12" edge="1">
          <mxGeometry relative="1" as="geometry" />
        </mxCell>
        <mxCell id="t8uLsHS5nV-Fre8a65G6-6" value="f == null" style="rhombus;whiteSpace=wrap;html=1;rounded=0;" parent="1" vertex="1">
          <mxGeometry x="365" y="430" width="80" height="80" as="geometry" />
        </mxCell>
        <mxCell id="t8uLsHS5nV-Fre8a65G6-8" value="return 0;" style="shape=parallelogram;perimeter=parallelogramPerimeter;whiteSpace=wrap;html=1;fixedSize=1;" parent="1" vertex="1">
          <mxGeometry x="560" y="440" width="120" height="60" as="geometry" />
        </mxCell>
        <mxCell id="t8uLsHS5nV-Fre8a65G6-17" value="" style="edgeStyle=orthogonalEdgeStyle;rounded=0;orthogonalLoop=1;jettySize=auto;html=1;" parent="1" source="t8uLsHS5nV-Fre8a65G6-12" target="t8uLsHS5nV-Fre8a65G6-16" edge="1">
          <mxGeometry relative="1" as="geometry" />
        </mxCell>
        <mxCell id="t8uLsHS5nV-Fre8a65G6-12" value="&lt;div style=&quot;background-color: rgb(31, 31, 31); font-family: Consolas, &amp;quot;Courier New&amp;quot;, monospace; font-size: 14px; line-height: 19px;&quot;&gt;&lt;div style=&quot;line-height: 19px;&quot;&gt;&lt;div style=&quot;line-height: 19px;&quot;&gt;&lt;div style=&quot;color: rgb(204, 204, 204);&quot;&gt;for (&lt;span style=&quot;color: #569cd6;&quot;&gt;int&lt;/span&gt; &lt;span style=&quot;color: #9cdcfe;&quot;&gt;i&lt;/span&gt;&lt;span style=&quot;color: #d4d4d4;&quot;&gt;=&lt;/span&gt;&lt;span style=&quot;color: #b5cea8;&quot;&gt;0&lt;/span&gt;;&lt;span style=&quot;color: #9cdcfe;&quot;&gt;i&lt;/span&gt;&lt;span style=&quot;color: #d4d4d4;&quot;&gt;&amp;lt;&lt;/span&gt;&lt;span style=&quot;color: #9cdcfe;&quot;&gt;n&lt;/span&gt;;&lt;span style=&quot;color: #9cdcfe;&quot;&gt;i&lt;/span&gt;&lt;span style=&quot;color: #d4d4d4;&quot;&gt;++&lt;/span&gt;){&lt;/div&gt;&lt;div style=&quot;color: rgb(204, 204, 204);&quot;&gt;&amp;nbsp; &amp;nbsp; &amp;nbsp; &amp;nbsp; &lt;span style=&quot;color: #dcdcaa;&quot;&gt;gets&lt;/span&gt;(&lt;span style=&quot;color: #9cdcfe;&quot;&gt;x&lt;/span&gt;);&lt;/div&gt;&lt;div style=&quot;&quot;&gt;&lt;font color=&quot;#cccccc&quot;&gt;&amp;nbsp; &amp;nbsp; &amp;nbsp; &amp;nbsp; &lt;/font&gt;&lt;span style=&quot;color: rgb(220, 220, 170);&quot;&gt;fprintf&lt;/span&gt;&lt;font color=&quot;#cccccc&quot;&gt;(&lt;/font&gt;&lt;span style=&quot;color: rgb(156, 220, 254);&quot;&gt;f&lt;/span&gt;&lt;font color=&quot;#cccccc&quot;&gt;, &lt;/font&gt;&lt;span style=&quot;color: rgb(206, 145, 120);&quot;&gt;&quot;&lt;/span&gt;&lt;span style=&quot;color: rgb(156, 220, 254);&quot;&gt;%s&lt;/span&gt;&lt;span style=&quot;color: rgb(215, 186, 125);&quot;&gt;\n&lt;/span&gt;&lt;span style=&quot;color: rgb(206, 145, 120);&quot;&gt;&quot;&lt;/span&gt;&lt;font color=&quot;#cccccc&quot;&gt;, &lt;/font&gt;&lt;font color=&quot;#9cdcfe&quot;&gt;str&lt;/font&gt;&lt;font color=&quot;#cccccc&quot;&gt;);&lt;/font&gt;&lt;/div&gt;&lt;div style=&quot;color: rgb(204, 204, 204);&quot;&gt;&amp;nbsp; &amp;nbsp; }&lt;/div&gt;&lt;/div&gt;&lt;/div&gt;&lt;/div&gt;" style="rounded=0;whiteSpace=wrap;html=1;" parent="1" vertex="1">
          <mxGeometry x="192.5" y="590" width="510" height="60" as="geometry" />
        </mxCell>
        <mxCell id="t8uLsHS5nV-Fre8a65G6-14" value="true" style="text;html=1;strokeColor=none;fillColor=none;align=center;verticalAlign=middle;whiteSpace=wrap;rounded=0;" parent="1" vertex="1">
          <mxGeometry x="460" y="440" width="60" height="30" as="geometry" />
        </mxCell>
        <mxCell id="t8uLsHS5nV-Fre8a65G6-15" value="false" style="text;html=1;strokeColor=none;fillColor=none;align=center;verticalAlign=middle;whiteSpace=wrap;rounded=0;" parent="1" vertex="1">
          <mxGeometry x="440" y="520" width="60" height="30" as="geometry" />
        </mxCell>
        <mxCell id="t8uLsHS5nV-Fre8a65G6-31" value="" style="edgeStyle=orthogonalEdgeStyle;rounded=0;orthogonalLoop=1;jettySize=auto;html=1;" parent="1" source="t8uLsHS5nV-Fre8a65G6-16" target="t8uLsHS5nV-Fre8a65G6-21" edge="1">
          <mxGeometry relative="1" as="geometry" />
        </mxCell>
        <mxCell id="t8uLsHS5nV-Fre8a65G6-16" value="fclose(f)" style="whiteSpace=wrap;html=1;rounded=0;" parent="1" vertex="1">
          <mxGeometry x="410" y="700" width="120" height="60" as="geometry" />
        </mxCell>
        <mxCell id="t8uLsHS5nV-Fre8a65G6-20" value="" style="edgeStyle=orthogonalEdgeStyle;rounded=0;orthogonalLoop=1;jettySize=auto;html=1;" parent="1" source="t8uLsHS5nV-Fre8a65G6-21" target="t8uLsHS5nV-Fre8a65G6-24" edge="1">
          <mxGeometry relative="1" as="geometry" />
        </mxCell>
        <mxCell id="t8uLsHS5nV-Fre8a65G6-21" value="&lt;div style=&quot;color: rgb(204, 204, 204); background-color: rgb(31, 31, 31); font-family: Consolas, &amp;quot;Courier New&amp;quot;, monospace; font-size: 14px; line-height: 19px;&quot;&gt;&amp;nbsp;f &lt;span style=&quot;color: #d4d4d4;&quot;&gt;=&lt;/span&gt; &lt;span style=&quot;color: #dcdcaa;&quot;&gt;fopen&lt;/span&gt;(&lt;span style=&quot;color: #ce9178;&quot;&gt;&quot;bt01.txt&quot;&lt;/span&gt;,&lt;span style=&quot;color: #ce9178;&quot;&gt;&quot;r&quot;&lt;/span&gt;);&lt;/div&gt;" style="rounded=0;whiteSpace=wrap;html=1;" parent="1" vertex="1">
          <mxGeometry x="325" y="800" width="245" height="60" as="geometry" />
        </mxCell>
        <mxCell id="t8uLsHS5nV-Fre8a65G6-22" value="" style="edgeStyle=orthogonalEdgeStyle;rounded=0;orthogonalLoop=1;jettySize=auto;html=1;" parent="1" source="t8uLsHS5nV-Fre8a65G6-24" target="t8uLsHS5nV-Fre8a65G6-25" edge="1">
          <mxGeometry relative="1" as="geometry" />
        </mxCell>
        <mxCell id="t8uLsHS5nV-Fre8a65G6-23" value="" style="edgeStyle=orthogonalEdgeStyle;rounded=0;orthogonalLoop=1;jettySize=auto;html=1;" parent="1" source="t8uLsHS5nV-Fre8a65G6-24" target="t8uLsHS5nV-Fre8a65G6-27" edge="1">
          <mxGeometry relative="1" as="geometry" />
        </mxCell>
        <mxCell id="t8uLsHS5nV-Fre8a65G6-24" value="f == null" style="rhombus;whiteSpace=wrap;html=1;rounded=0;" parent="1" vertex="1">
          <mxGeometry x="410" y="920" width="80" height="80" as="geometry" />
        </mxCell>
        <mxCell id="t8uLsHS5nV-Fre8a65G6-25" value="return 0;" style="shape=parallelogram;perimeter=parallelogramPerimeter;whiteSpace=wrap;html=1;fixedSize=1;" parent="1" vertex="1">
          <mxGeometry x="192.5" y="940" width="120" height="60" as="geometry" />
        </mxCell>
        <mxCell id="t8uLsHS5nV-Fre8a65G6-26" value="" style="edgeStyle=orthogonalEdgeStyle;rounded=0;orthogonalLoop=1;jettySize=auto;html=1;" parent="1" source="t8uLsHS5nV-Fre8a65G6-27" target="t8uLsHS5nV-Fre8a65G6-30" edge="1">
          <mxGeometry relative="1" as="geometry" />
        </mxCell>
        <mxCell id="t8uLsHS5nV-Fre8a65G6-27" value="&lt;div style=&quot;background-color: rgb(31, 31, 31); font-family: Consolas, &amp;quot;Courier New&amp;quot;, monospace; font-size: 14px; line-height: 19px;&quot;&gt;&lt;div style=&quot;line-height: 19px;&quot;&gt;&lt;div style=&quot;line-height: 19px;&quot;&gt;&lt;div style=&quot;line-height: 19px;&quot;&gt;&lt;div style=&quot;color: rgb(204, 204, 204);&quot;&gt;for (&lt;span style=&quot;color: #569cd6;&quot;&gt;int&lt;/span&gt; &lt;span style=&quot;color: #9cdcfe;&quot;&gt;i&lt;/span&gt;&lt;span style=&quot;color: #d4d4d4;&quot;&gt;=&lt;/span&gt;&lt;span style=&quot;color: #b5cea8;&quot;&gt;0&lt;/span&gt;;&lt;span style=&quot;color: #9cdcfe;&quot;&gt;i&lt;/span&gt;&lt;span style=&quot;color: #d4d4d4;&quot;&gt;&amp;lt;&lt;/span&gt;&lt;span style=&quot;color: #9cdcfe;&quot;&gt;n&lt;/span&gt;;&lt;span style=&quot;color: #9cdcfe;&quot;&gt;i&lt;/span&gt;&lt;span style=&quot;color: #d4d4d4;&quot;&gt;++&lt;/span&gt;) {&lt;/div&gt;&lt;div style=&quot;&quot;&gt;&lt;font color=&quot;#cccccc&quot;&gt;&amp;nbsp; &amp;nbsp; &amp;nbsp; &amp;nbsp; &lt;/font&gt;&lt;span style=&quot;color: rgb(220, 220, 170);&quot;&gt;fscanf&lt;/span&gt;&lt;font color=&quot;#cccccc&quot;&gt;(&lt;/font&gt;&lt;span style=&quot;color: rgb(156, 220, 254);&quot;&gt;f&lt;/span&gt;&lt;font color=&quot;#cccccc&quot;&gt;, &lt;/font&gt;&lt;span style=&quot;color: rgb(206, 145, 120);&quot;&gt;&quot;&lt;/span&gt;&lt;span style=&quot;color: rgb(156, 220, 254);&quot;&gt;%s&lt;/span&gt;&lt;span style=&quot;color: rgb(206, 145, 120);&quot;&gt;&quot;&lt;/span&gt;&lt;font color=&quot;#cccccc&quot;&gt;, &lt;/font&gt;&lt;font color=&quot;#9cdcfe&quot;&gt;str1&lt;/font&gt;&lt;font color=&quot;#cccccc&quot;&gt;);&lt;/font&gt;&lt;/div&gt;&lt;div style=&quot;&quot;&gt;&lt;span style=&quot;color: rgb(204, 204, 204);&quot;&gt;&amp;nbsp; &amp;nbsp; &amp;nbsp; &amp;nbsp; &lt;span style=&quot;color: #dcdcaa;&quot;&gt;printf&lt;/span&gt;(&lt;span style=&quot;color: #ce9178;&quot;&gt;&quot;&lt;/span&gt;&lt;span style=&quot;color: #9cdcfe;&quot;&gt;%d&lt;/span&gt;&lt;span style=&quot;color: #ce9178;&quot;&gt;:&lt;/span&gt;&lt;span style=&quot;color: #9cdcfe;&quot;&gt;%s&lt;/span&gt;&lt;span style=&quot;color: #d7ba7d;&quot;&gt;\n&lt;/span&gt;&lt;span style=&quot;color: #ce9178;&quot;&gt;&quot;&lt;/span&gt;,&lt;span style=&quot;color: #9cdcfe;&quot;&gt;i&lt;/span&gt;&lt;span style=&quot;color: #d4d4d4;&quot;&gt;+&lt;/span&gt;&lt;span style=&quot;color: #b5cea8;&quot;&gt;1&lt;/span&gt;,&lt;/span&gt;&lt;font color=&quot;#9cdcfe&quot;&gt;str1&lt;/font&gt;&lt;font color=&quot;#cccccc&quot;&gt;);&lt;/font&gt;&lt;/div&gt;&lt;div style=&quot;color: rgb(204, 204, 204);&quot;&gt;&amp;nbsp; &amp;nbsp; }&lt;/div&gt;&lt;/div&gt;&lt;/div&gt;&lt;/div&gt;&lt;/div&gt;" style="rounded=0;whiteSpace=wrap;html=1;" parent="1" vertex="1">
          <mxGeometry x="200" y="1130" width="510" height="60" as="geometry" />
        </mxCell>
        <mxCell id="t8uLsHS5nV-Fre8a65G6-28" value="true" style="text;html=1;strokeColor=none;fillColor=none;align=center;verticalAlign=middle;whiteSpace=wrap;rounded=0;" parent="1" vertex="1">
          <mxGeometry x="330" y="930" width="60" height="30" as="geometry" />
        </mxCell>
        <mxCell id="t8uLsHS5nV-Fre8a65G6-29" value="false" style="text;html=1;strokeColor=none;fillColor=none;align=center;verticalAlign=middle;whiteSpace=wrap;rounded=0;" parent="1" vertex="1">
          <mxGeometry x="400" y="1040" width="60" height="30" as="geometry" />
        </mxCell>
        <mxCell id="t8uLsHS5nV-Fre8a65G6-30" value="fclose(f)" style="whiteSpace=wrap;html=1;rounded=0;" parent="1" vertex="1">
          <mxGeometry x="380" y="1370" width="120" height="60" as="geometry" />
        </mxCell>
        <mxCell id="YN5ZP-HamBxeRni5_Btf-5" value="char str1[20]&lt;br&gt;str[20]" style="rounded=0;whiteSpace=wrap;html=1;" vertex="1" parent="1">
          <mxGeometry x="370" y="10" width="120" height="60" as="geometry" />
        </mxCell>
      </root>
    </mxGraphModel>
  </diagram>
</mxfile>
